<svg width="371" height="383" viewBox="0 0 371 383" fill="none" xmlns="http://www.w3.org/2000/svg">
<ellipse cx="183.002" cy="191.056" rx="80.5" ry="175.5" transform="rotate(-32.9475 183.002 191.056)" fill="#6DDE9E" fill-opacity="0.9"/>
<ellipse cx="185.123" cy="176.098" rx="80.5" ry="175.5" transform="rotate(48.8518 185.123 176.098)" fill="#6DDE9E"/>
<g filter="url(#filter0_i_4_4)">
<path d="M101.8 202V153H114.47L120.07 168.12L125.53 153H138.2V202H128.05V170.08L119.93 190.17L111.88 170.08L111.81 202H101.8ZM156.723 202.56C154.296 202.56 152.126 202.093 150.213 201.16C148.346 200.227 146.876 198.943 145.803 197.31C144.776 195.677 144.263 193.787 144.263 191.64C144.263 189.4 144.823 187.51 145.943 185.97C147.063 184.383 148.673 183.193 150.773 182.4C152.873 181.56 155.393 181.14 158.333 181.14C159.639 181.14 160.969 181.28 162.323 181.56C163.676 181.84 165.146 182.307 166.733 182.96V179.88C166.733 178.107 166.149 176.8 164.983 175.96C163.816 175.073 162.019 174.63 159.593 174.63C158.239 174.63 156.723 174.863 155.043 175.33C153.409 175.75 151.543 176.403 149.443 177.29L145.383 169.24C148.416 167.887 151.286 166.907 153.993 166.3C156.746 165.647 159.453 165.32 162.113 165.32C167.106 165.32 170.979 166.51 173.733 168.89C176.533 171.27 177.933 174.607 177.933 178.9V202H166.733V198.57C165.146 199.97 163.559 200.997 161.973 201.65C160.386 202.257 158.636 202.56 156.723 202.56ZM154.693 191.43C154.693 192.597 155.183 193.507 156.163 194.16C157.143 194.767 158.496 195.07 160.223 195.07C161.436 195.07 162.579 194.907 163.653 194.58C164.773 194.207 165.799 193.693 166.733 193.04V188.77C165.706 188.49 164.656 188.28 163.583 188.14C162.556 187.953 161.529 187.86 160.503 187.86C158.683 187.86 157.259 188.163 156.233 188.77C155.206 189.377 154.693 190.263 154.693 191.43ZM187.005 202V193.25H194.845V174.63H187.005V165.88H206.185V174.98C207.492 171.667 209.125 169.24 211.085 167.7C213.092 166.113 215.355 165.32 217.875 165.32C218.949 165.32 219.789 165.39 220.395 165.53C221.049 165.67 221.819 165.95 222.705 166.37V176.52C221.819 176.1 220.745 175.797 219.485 175.61C218.272 175.377 217.059 175.26 215.845 175.26C213.885 175.26 212.042 175.703 210.315 176.59C208.589 177.43 207.212 178.597 206.185 180.09V193.25H214.445V202H187.005ZM234.018 217.33C233.038 217.33 231.941 217.26 230.728 217.12C229.515 216.98 228.348 216.793 227.228 216.56V207.04C228.301 207.227 229.165 207.343 229.818 207.39C230.518 207.483 231.475 207.53 232.688 207.53C234.275 207.53 235.558 207.25 236.538 206.69C237.518 206.177 238.241 205.36 238.708 204.24L239.198 202.98L225.758 165.88H238.148L245.638 189.61L253.968 165.88H266.078L249.838 206.06C248.718 208.813 247.458 211.007 246.058 212.64C244.705 214.32 243.048 215.51 241.088 216.21C239.175 216.957 236.818 217.33 234.018 217.33Z" fill="white"/>
</g>
<defs>
<filter id="filter0_i_4_4" x="101.8" y="153" width="164.278" height="68.33" filterUnits="userSpaceOnUse" color-interpolation-filters="sRGB">
<feFlood flood-opacity="0" result="BackgroundImageFix"/>
<feBlend mode="normal" in="SourceGraphic" in2="BackgroundImageFix" result="shape"/>
<feColorMatrix in="SourceAlpha" type="matrix" values="0 0 0 0 0 0 0 0 0 0 0 0 0 0 0 0 0 0 127 0" result="hardAlpha"/>
<feOffset dy="4"/>
<feGaussianBlur stdDeviation="2"/>
<feComposite in2="hardAlpha" operator="arithmetic" k2="-1" k3="1"/>
<feColorMatrix type="matrix" values="0 0 0 0 0 0 0 0 0 0 0 0 0 0 0 0 0 0 0.25 0"/>
<feBlend mode="normal" in2="shape" result="effect1_innerShadow_4_4"/>
</filter>
</defs>
</svg>
